<?xml version="1.0" encoding="UTF-8"?>
<svg  width="35" height="20" version="1.1" xmlns="http://www.w3.org/2000/svg" xmlns:xlink="http://www.w3.org/1999/xlink">
    <!-- Generator: Sketch 52.4 (67378) - http://www.bohemiancoding.com/sketch -->
    <title>Path</title>
    <desc>Created with Sketch.</desc>
    <g id="Desktop" stroke="none" stroke-width="1" fill="none" fill-rule="evenodd">
        <g id="noun_Crown_1468185" transform="translate(-64.000000, 0.000000)" fill="#FFCA17">
            <path d="M72.7444447,0.142758033 L69.762388,5.04638317 L64.4327547,1.88304644 C64.2967947,1.80147042 64.1155147,1.84679043 64.0339386,1.98275046 C63.9976826,2.05526248 63.9886186,2.1368385 64.0158106,2.21841452 L66.7712673,10.6570005 C66.8075233,10.7838965 66.9162913,10.8745365 67.0522513,10.8745365 L78.9351581,10.8745365 C79.0711181,10.8745365 79.1798862,10.7748325 79.2161422,10.6388725 L81.9715988,2.21841452 C82.0169188,2.06432648 81.9353428,1.90117444 81.7903188,1.85585443 C81.7087428,1.82866243 81.6181027,1.83772643 81.5455907,1.88304644 L76.2250215,5.04638317 L73.2429648,0.142758033 C73.1251328,-0.0475860111 72.8622767,-0.0475860111 72.7444447,0.142758033 Z" id="Path"></path>
        </g>
    </g>
</svg>