<?xml version="1.0" encoding="UTF-8"?>
<svg width="18px" height="18px" viewBox="0 0 18 18" version="1.1" xmlns="http://www.w3.org/2000/svg" xmlns:xlink="http://www.w3.org/1999/xlink">
    <!-- Generator: sketchtool 49.2 (51160) - http://www.bohemiancoding.com/sketch -->
    <title>727CEF3C-4A03-4DC3-A86D-91C9DF7CAA6A</title>
    <desc>Created with sketchtool.</desc>
    <defs></defs>
    <g id="Symbols" stroke="none" stroke-width="1" fill="none" fill-rule="evenodd">
        <g id="Nav/Top-Nav-Dashboard" transform="translate(-1160.000000, -15.000000)" fill="#FBFFEF">
            <g id="Title">
                <g id="Icons/Dashboard" transform="translate(1160.000000, 15.000000)">
                    <g id="Group">
                        <g id="Profile" fill-rule="nonzero">
                            <path d="M6.42857143,18 L16.7142857,18 C17.4214286,18 18,17.4214286 18,16.7142857 L18,6.42857143 L6.42857143,6.42857143 L6.42857143,18 Z M16.7142857,0 L1.28571429,0 C0.578571429,0 0,0.578571429 0,1.28571429 L0,5.14285714 L18,5.14285714 L18,1.28571429 C18,0.578571429 17.4214286,0 16.7142857,0 Z M0,16.7142857 C0,17.4214286 0.578571429,18 1.28571429,18 L5.14285714,18 L5.14285714,6.42857143 L0,6.42857143 L0,16.7142857 Z" id="Shape"></path>
                        </g>
                    </g>
                </g>
            </g>
        </g>
    </g>
</svg>