<?xml version="1.0" encoding="UTF-8"?>
<svg width="133px" height="32px" viewBox="0 0 133 32" version="1.1" xmlns="http://www.w3.org/2000/svg" xmlns:xlink="http://www.w3.org/1999/xlink">
    <!-- Generator: Sketch 48.2 (47327) - http://www.bohemiancoding.com/sketch -->
    <title>Froggo</title>
    <desc>Created with Sketch.</desc>
    <defs></defs>
    <g id="Login" stroke="none" stroke-width="1" fill="none" fill-rule="evenodd" transform="translate(-654.000000, -24.000000)">
        <g id="Top-Header" fill="#FBFFEF">
            <g id="Group">
                <path d="M671.488881,24 C671.680466,24.2965617 671.851522,24.6942181 672.002053,25.192981 C672.152584,25.6917439 672.227848,26.2107192 672.227848,26.7499223 C672.227848,27.8013685 672.002055,28.5495016 671.550462,28.9943442 C671.098869,29.4391868 670.489911,29.6616048 669.723572,29.6616048 L661.102292,29.6616048 L661.102292,34.2313286 L670.093055,34.2313286 C670.312009,34.5278903 670.496749,34.9188067 670.64728,35.4040896 C670.797811,35.8893724 670.873076,36.4016077 670.873076,36.9408109 C670.873076,37.9652969 670.647282,38.6999501 670.195689,39.1447927 C669.744096,39.5896353 669.135139,39.8120533 668.368799,39.8120533 L661.1844,39.8120533 L661.1844,48.3449005 C660.883338,48.4257809 660.411225,48.5066602 659.768047,48.5875407 C659.124868,48.6684211 658.488542,48.7088608 657.859049,48.7088608 C657.229556,48.7088608 656.675336,48.6616812 656.196374,48.5673206 C655.717411,48.4729601 655.31372,48.3044616 654.985289,48.0618202 C654.656858,47.8191788 654.410538,47.4821819 654.246322,47.0508194 C654.082107,46.6194568 654,46.053302 654,45.3523379 L654,27.7609232 C654,26.6016364 654.342111,25.6850048 655.026343,25.0110008 C655.710575,24.3369969 656.641116,24 657.817995,24 L671.488881,24 Z M682.334237,48.7479318 C682.064985,48.8292638 681.64092,48.9105946 681.062029,48.9919266 C680.483138,49.0732587 679.884062,49.1139241 679.264783,49.1139241 C678.67243,49.1139241 678.140666,49.0732587 677.669475,48.9919266 C677.198285,48.9105946 676.801145,48.747933 676.478043,48.503937 C676.154941,48.259941 675.905887,47.9278402 675.730873,47.5076248 C675.55586,47.0874094 675.468354,46.5384266 675.468354,45.8606598 L675.468354,33.660919 C675.468354,33.0373735 675.582785,32.5019458 675.811649,32.0546198 C676.040512,31.6072937 676.370341,31.2074173 676.801143,30.8549786 C677.231946,30.5025399 677.76371,30.1839942 678.396451,29.8993322 C679.029193,29.6146702 679.709043,29.3639002 680.436022,29.1470149 C681.163002,28.9301295 681.916895,28.7606903 682.697724,28.6386923 C683.478554,28.5166943 684.259372,28.4556962 685.040202,28.4556962 C686.33261,28.4556962 687.355751,28.7064661 688.109655,29.2080136 C688.86356,29.709561 689.240506,30.5296465 689.240506,31.6682946 C689.240506,32.047844 689.186657,32.4206102 689.078956,32.7866042 C688.971256,33.1525983 688.836632,33.484699 688.675081,33.7829164 C688.109652,33.7829164 687.53077,33.8100266 686.938416,33.864248 C686.346063,33.9184693 685.767181,33.9998001 685.201752,34.1082428 C684.636324,34.2166855 684.10456,34.3319041 683.606444,34.4539021 C683.108329,34.5759001 682.684264,34.718229 682.334237,34.8808931 L682.334237,48.7479318 Z M713.139241,38.9669711 C713.139241,40.6509564 712.879766,42.151582 712.360808,43.4688931 C711.84185,44.7862041 711.111223,45.8930004 710.168905,46.7893152 C709.226587,47.6856299 708.09992,48.3646461 706.788868,48.826384 C705.477817,49.2881219 704.016564,49.5189873 702.405063,49.5189873 C700.793563,49.5189873 699.332309,49.2745415 698.021258,48.7856426 C696.710207,48.2967436 695.583539,47.597357 694.641221,46.6874617 C693.698903,45.7775665 692.968277,44.6707702 692.449319,43.3670396 C691.930361,42.0633091 691.670886,40.5966343 691.670886,38.9669711 C691.670886,37.364469 691.930361,35.9113744 692.449319,34.6076439 C692.968277,33.3039134 693.698903,32.1971171 694.641221,31.2872218 C695.583539,30.3773265 696.710207,29.6779399 698.021258,29.189041 C699.332309,28.700142 700.793563,28.4556962 702.405063,28.4556962 C704.016564,28.4556962 705.477817,28.7069322 706.788868,29.2094116 C708.09992,29.7118911 709.226587,30.4180679 710.168905,31.3279632 C711.111223,32.2378584 711.84185,33.3446547 712.360808,34.6483853 C712.879766,35.9521158 713.139241,37.39163 713.139241,38.9669711 Z M698.556962,38.7646377 C698.556962,40.4053405 698.88147,41.6627455 699.530495,42.5368904 C700.17952,43.4110354 701.083999,43.8481013 702.243959,43.8481013 C703.403918,43.8481013 704.294588,43.4043113 704.915995,42.5167179 C705.537402,41.6291246 705.848101,40.3784437 705.848101,38.7646377 C705.848101,37.1508316 705.530498,35.9068748 704.895282,35.0327298 C704.260066,34.1585849 703.362491,33.721519 702.202532,33.721519 C701.042572,33.721519 700.144997,34.1585849 699.509781,35.0327298 C698.874565,35.9068748 698.556962,37.1508316 698.556962,38.7646377 Z M727.000942,28.4556962 C728.559271,28.4556962 729.97405,28.6509007 731.245319,29.0413156 C732.516588,29.4317304 733.589632,29.9365697 734.464484,30.5558484 C735.011266,30.9328007 735.441851,31.3501344 735.756251,31.8078622 C736.070651,32.26559 736.227848,32.8579347 736.227848,33.5849141 L736.227848,47.7205538 C736.227848,49.1475875 735.954461,50.3793952 735.407679,51.416014 C734.860896,52.4526327 734.115916,53.314225 733.172717,54.0008167 C732.229517,54.6874083 731.122299,55.1922475 729.85103,55.5153495 C728.579761,55.8384514 727.219661,56 725.770687,56 C723.282827,56 721.32811,55.6701717 719.906476,55.0105052 C718.484841,54.3508387 717.774035,53.2805796 717.774035,51.7996956 C717.774035,51.1804169 717.903894,50.6351905 718.163615,50.1640001 C718.423337,49.6928098 718.717228,49.3360567 719.045298,49.0937303 C719.838132,49.5245329 720.733475,49.8880171 721.731353,50.1841939 C722.729231,50.4803707 723.761267,50.6284569 724.827492,50.6284569 C726.303805,50.6284569 727.479369,50.3861341 728.354221,49.9014811 C729.229073,49.4168282 729.666492,48.6360102 729.666492,47.5590037 L729.666492,46.912803 C728.545588,47.3974559 727.178653,47.6397788 725.565645,47.6397788 C724.335385,47.6397788 723.166655,47.4580366 722.05942,47.0945469 C720.952186,46.7310572 719.981662,46.1656373 719.147819,45.3982702 C718.313976,44.630903 717.644177,43.6414181 717.138404,42.4297858 C716.63263,41.2181535 716.379747,39.7776789 716.379747,38.1083188 C716.379747,36.4658839 716.646299,35.0388716 717.179412,33.8272393 C717.712525,32.615607 718.45067,31.6126597 719.39387,30.8183674 C720.337069,30.0240751 721.457956,29.4317304 722.756564,29.0413156 C724.055173,28.6509007 725.469951,28.4556962 727.000942,28.4556962 Z M729.341772,34.218899 C729.155229,34.1083696 728.88208,33.9978418 728.522318,33.8873123 C728.162556,33.7767829 727.716192,33.721519 727.183211,33.721519 C725.877409,33.721519 724.898071,34.1014583 724.24517,34.8613482 C723.592269,35.6212382 723.265823,36.7057922 723.265823,38.1150427 C723.265823,39.7177197 723.592269,40.8713536 724.24517,41.5759788 C724.898071,42.2806041 725.730841,42.6329114 726.743504,42.6329114 C727.836115,42.6329114 728.702195,42.3704079 729.341772,41.845393 L729.341772,34.218899 Z M751.304739,28.4556962 C752.863069,28.4556962 754.277847,28.6509007 755.549116,29.0413156 C756.820385,29.4317304 757.893429,29.9365697 758.768281,30.5558484 C759.315064,30.9328007 759.745648,31.3501344 760.060048,31.8078622 C760.374448,32.26559 760.531646,32.8579347 760.531646,33.5849141 L760.531646,47.7205538 C760.531646,49.1475875 760.258258,50.3793952 759.711476,51.416014 C759.164694,52.4526327 758.419714,53.314225 757.476514,54.0008167 C756.533315,54.6874083 755.426097,55.1922475 754.154828,55.5153495 C752.883559,55.8384514 751.523458,56 750.074485,56 C747.586625,56 745.631907,55.6701717 744.210273,55.0105052 C742.788639,54.3508387 742.077832,53.2805796 742.077832,51.7996956 C742.077832,51.1804169 742.207691,50.6351905 742.467413,50.1640001 C742.727135,49.6928098 743.021026,49.3360567 743.349095,49.0937303 C744.14193,49.5245329 745.037272,49.8880171 746.03515,50.1841939 C747.033028,50.4803707 748.065064,50.6284569 749.13129,50.6284569 C750.607602,50.6284569 751.783167,50.3861341 752.658019,49.9014811 C753.53287,49.4168282 753.97029,48.6360102 753.97029,47.5590037 L753.97029,46.912803 C752.849386,47.3974559 751.48245,47.6397788 749.869442,47.6397788 C748.639182,47.6397788 747.470452,47.4580366 746.363218,47.0945469 C745.255984,46.7310572 744.285459,46.1656373 743.451616,45.3982702 C742.617773,44.630903 741.947975,43.6414181 741.442201,42.4297858 C740.936427,41.2181535 740.683544,39.7776789 740.683544,38.1083188 C740.683544,36.4658839 740.950097,35.0388716 741.48321,33.8272393 C742.016322,32.615607 742.754468,31.6126597 743.697667,30.8183674 C744.640867,30.0240751 745.761754,29.4317304 747.060362,29.0413156 C748.35897,28.6509007 749.773748,28.4556962 751.304739,28.4556962 Z M753.64557,34.218899 C753.459026,34.1083696 753.185878,33.9978418 752.826116,33.8873123 C752.466354,33.7767829 752.019989,33.721519 751.487009,33.721519 C750.181206,33.721519 749.201869,34.1014583 748.548967,34.8613482 C747.896066,35.6212382 747.56962,36.7057922 747.56962,38.1150427 C747.56962,39.7177197 747.896066,40.8713536 748.548967,41.5759788 C749.201869,42.2806041 750.034639,42.6329114 751.047302,42.6329114 C752.139912,42.6329114 753.005993,42.3704079 753.64557,41.845393 L753.64557,34.218899 Z M786.455696,38.9669711 C786.455696,40.6509564 786.196221,42.151582 785.677264,43.4688931 C785.158306,44.7862041 784.427679,45.8930004 783.485361,46.7893152 C782.543043,47.6856299 781.416375,48.3646461 780.105324,48.826384 C778.794273,49.2881219 777.333019,49.5189873 775.721519,49.5189873 C774.110019,49.5189873 772.648765,49.2745415 771.337714,48.7856426 C770.026663,48.2967436 768.899995,47.597357 767.957677,46.6874617 C767.015359,45.7775665 766.284732,44.6707702 765.765774,43.3670396 C765.246817,42.0633091 764.987342,40.5966343 764.987342,38.9669711 C764.987342,37.364469 765.246817,35.9113744 765.765774,34.6076439 C766.284732,33.3039134 767.015359,32.1971171 767.957677,31.2872218 C768.899995,30.3773265 770.026663,29.6779399 771.337714,29.189041 C772.648765,28.700142 774.110019,28.4556962 775.721519,28.4556962 C777.333019,28.4556962 778.794273,28.7069322 780.105324,29.2094116 C781.416375,29.7118911 782.543043,30.4180679 783.485361,31.3279632 C784.427679,32.2378584 785.158306,33.3446547 785.677264,34.6483853 C786.196221,35.9521158 786.455696,37.39163 786.455696,38.9669711 Z M772.278481,38.7646377 C772.278481,40.4053405 772.602989,41.6627455 773.252014,42.5368904 C773.901039,43.4110354 774.805518,43.8481013 775.965478,43.8481013 C777.125437,43.8481013 778.016107,43.4043113 778.637514,42.5167179 C779.258921,41.6291246 779.56962,40.3784437 779.56962,38.7646377 C779.56962,37.1508316 779.252017,35.9068748 778.616801,35.0327298 C777.981585,34.1585849 777.08401,33.721519 775.924051,33.721519 C774.764091,33.721519 773.866516,34.1585849 773.2313,35.0327298 C772.596084,35.9068748 772.278481,37.1508316 772.278481,38.7646377 Z" id="Froggo"></path>
            </g>
        </g>
    </g>
</svg>