<svg width="61" height="60" viewBox="0 0 61 60" fill="none" xmlns="http://www.w3.org/2000/svg">
<path fill-rule="evenodd" clip-rule="evenodd" d="M30.5 60C47.0685 60 60.5 46.5685 60.5 30C60.5 13.4315 47.0685 0 30.5 0C21.8526 0 14.0598 3.65868 8.58496 9.51251C18.5343 16.9108 38.8165 17.2761 39.1339 16.8306C41.9754 12.8415 46.9709 15.8101 46.2377 18.7432C45.1994 22.8962 40.9371 22.1129 39.1339 19.5628C32.8315 18.9253 19.7459 18.5902 17.8224 22.3497C15.8989 26.1093 37.1302 34.7359 47.9863 38.5792C50.0628 35.5191 57.4945 38.1421 54.3798 43.7158C52.3905 47.2756 46.9481 44.8634 46.9481 41.6393C42.6111 39.6814 38.7792 37.9061 35.4064 36.3435C22.5882 30.4049 16.4017 27.5387 14.3251 29.3989C12.2268 31.2787 18.6603 41.2933 22.1393 46.0656C24.7076 45.5191 26.183 47.9235 26.183 49.3443C26.183 51.6393 24.4344 53.2787 22.1393 52.8962C20.9053 52.6905 18.8606 51.4754 19.1885 47.9235C19.2211 47.5706 10.7028 29.4365 0.671507 26.7732C0.558146 27.8333 0.5 28.9099 0.5 30C0.5 46.5685 13.9315 60 30.5 60Z" fill="#5AD8C7"/>
</svg>
