<svg width="61" height="60" viewBox="0 0 61 60" fill="none" xmlns="http://www.w3.org/2000/svg">
<path d="M30.5 0C13.935 0 0.5 13.7721 0.5 30.7584C0.5 44.3485 9.095 55.8778 21.0175 59.9456C22.515 60.2301 23 59.2766 23 58.4666V52.7404C14.655 54.6013 12.9175 49.1109 12.9175 49.1109C11.5525 45.5558 9.585 44.6099 9.585 44.6099C6.8625 42.7004 9.7925 42.7414 9.7925 42.7414C12.805 42.9567 14.39 45.9121 14.39 45.9121C17.065 50.613 21.4075 49.2545 23.12 48.4676C23.3875 46.4811 24.165 45.1226 25.025 44.3562C18.3625 43.5744 11.3575 40.9369 11.3575 29.1538C11.3575 25.7935 12.53 23.0509 14.4475 20.8978C14.1375 20.1211 13.11 16.9915 14.74 12.7571C14.74 12.7571 17.26 11.9317 22.9925 15.9098C25.385 15.228 27.95 14.8871 30.5 14.8743C33.05 14.8871 35.6175 15.228 38.015 15.9098C43.7425 11.9317 46.2575 12.7571 46.2575 12.7571C47.89 16.994 46.8625 20.1237 46.5525 20.8978C48.4775 23.0509 49.64 25.7961 49.64 29.1538C49.64 40.9676 42.6225 43.5693 35.9425 44.3306C37.0175 45.2841 38 47.1552 38 50.026V58.4666C38 59.2843 38.48 60.2455 40.0025 59.943C51.915 55.8701 60.5 44.3434 60.5 30.7584C60.5 13.7721 47.0675 0 30.5 0Z" fill="black"/>
</svg>
