<?xml version="1.0" encoding="UTF-8"?>
<svg width="110px" height="33px" viewBox="0 0 188 56" version="1.1" xmlns="http://www.w3.org/2000/svg" xmlns:xlink="http://www.w3.org/1999/xlink">
    <!-- Generator: Sketch 48.2 (47327) - http://www.bohemiancoding.com/sketch -->
    <title>header-logo-platanus@2x</title>
    <desc>Created with Sketch.</desc>
    <defs></defs>
    <g id="Home-Desktop-menu-us-v2" stroke="none" stroke-width="1" fill="none" fill-rule="evenodd" transform="translate(-32.000000, -24.000000)">
        <g id="Header-Menu">
            <g id="header-logo-platanus" transform="translate(32.000000, 24.000000)">
                <path d="M27.9998542,0 C12.5360597,0 0,12.5359139 0,28 C0,43.4639403 12.5360597,56 27.9998542,56 C43.4639403,56 56,43.4639403 56,28 C56,12.5359139 43.4639403,0 27.9998542,0 L27.9998542,0 Z M10.3064255,28.0711663 C10.1929677,28.0338332 10.0630309,27.8509591 10.0630309,27.8509591 L8.68520476,25.9977188 C8.68520476,25.9977188 8.63066338,25.9227608 8.64524664,25.8874693 C8.6652257,25.8409487 8.70095468,25.8466362 8.75082942,25.8380321 C10.7999229,25.4835131 12.8638913,25.0883068 14.9650471,24.3837897 C16.9717033,23.7104807 19.1405253,22.9266306 21.2326394,21.4534299 C23.5351899,19.8310425 24.6704965,18.5147577 25.7724074,17.0034948 C27.4548778,14.696861 28.4646226,12.4615393 29.0202447,10.8751725 C29.0607861,10.7587981 29.0882027,10.7332774 29.1339941,10.7377982 C29.1643273,10.7407149 29.2041396,10.7430482 29.209827,10.812902 C29.2207645,10.9402139 29.0998693,15.9549586 29.0562653,16.4453935 C29.0179114,16.8690371 28.9509742,17.4462425 28.6664549,18.081635 C27.6081479,20.4470393 25.75622,22.4943828 23.3038995,24.3178733 C19.1047963,27.4404404 14.687236,28.0484164 10.6135489,28.1048536 C10.4987787,28.1070411 10.4213416,28.1084994 10.3064255,28.0711663 L10.3064255,28.0711663 Z M19.4533362,39.8160843 C19.3264618,39.879959 19.2407123,39.9235629 19.0921089,39.9429586 C18.944818,39.9625002 18.7022984,39.8280426 18.7022984,39.8280426 L16.16802,38.4977578 C16.16802,38.4977578 16.0673955,38.4437998 16.064333,38.3968417 C16.0614163,38.3341337 16.1048745,38.3210087 16.1556242,38.2845506 C18.2538633,36.7883084 20.3467065,35.2388373 22.3150088,33.3234723 C24.1950823,31.494586 26.1960511,29.4542424 27.7414388,26.6859027 C29.4422842,23.6375644 30.0030104,21.5574086 30.4224249,19.2778996 C31.062484,15.7987719 30.9902969,12.760496 30.7590065,10.690111 C30.7417982,10.5385909 30.7587148,10.4951328 30.8123812,10.4755913 C30.8476727,10.462758 30.8934641,10.4439456 30.9369222,10.518466 C31.0174218,10.655257 33.5756168,16.3202692 33.7898448,16.8916412 C33.9747605,17.3849928 34.2102802,18.0658851 34.2336134,18.9286306 C34.3211129,22.1384055 33.3526388,25.4192009 31.5927313,28.772621 C28.5796845,34.5147786 23.9728335,37.5657418 19.4533362,39.8160843 L19.4533362,39.8160843 Z M36.7291004,46.6094031 C36.632705,46.7440065 36.5681012,46.8363186 36.424602,46.9376722 C36.282561,47.0377133 35.9588127,47.0301301 35.9588127,47.0301301 L32.6090385,47.0301301 C32.6090385,47.0301301 32.4745809,47.0285259 32.4467268,46.9812761 C32.4092479,46.9181306 32.4470185,46.8813808 32.4798308,46.815902 C33.8400112,44.1236869 35.1663585,41.379847 36.1642908,38.3255296 C37.11789,35.4071281 38.0815517,32.2055198 38.1773637,28.4956849 C38.2828006,24.413102 37.7324285,21.9521773 36.927141,19.3618992 C35.6990849,15.4095447 33.9715522,12.2999568 32.605976,10.2803215 C32.5056432,10.1324472 32.4999557,10.0783433 32.5444347,10.0290519 C32.6119551,9.95482315 32.7134546,9.96196895 32.7134546,9.96196895 L36.036979,9.96196895 C36.036979,9.96196895 36.3563523,9.96196895 36.4756434,10.0290519 C36.5958094,10.0967182 36.6860798,10.1970511 36.7385795,10.2705507 C40.32854,15.335316 43.3036703,21.0369321 43.3036703,28.5642262 C43.3036703,36.1529159 40.1895615,41.8192405 36.7291004,46.6094031 L36.7291004,46.6094031 Z" id="Platanus-Logo-Circle" fill="#FEAB04"></path>
                <path d="M93.0114586,29.244687 C93.0114586,30.3483916 92.8737712,31.3831146 92.5983964,32.2798746 C92.3230216,33.2111253 91.9099594,34.004413 91.3592099,34.6597375 C90.8084603,35.3150621 90.1544452,35.8324236 89.3627427,36.2118221 C88.5710402,36.5912205 87.6416503,36.7636744 86.6434167,36.7636744 C85.9549797,36.7636744 85.3353865,36.6946928 84.750215,36.522239 C84.1650436,36.3497852 83.7175596,36.1773313 83.3389193,35.9703867 L83.3389193,41.5923818 L80,41.5923818 L80,22.4500058 C80.688437,22.277552 81.5145613,22.1050981 82.5127949,21.9326443 C83.5110285,21.7601905 84.543684,21.6912089 85.6796049,21.6912089 C86.8155259,21.6912089 87.8481814,21.8636628 88.7431494,22.2085704 C89.6381175,22.5534781 90.42982,23.0708396 91.0494132,23.7261642 C91.6690065,24.3814888 92.1853342,25.1747764 92.5295527,26.1060272 C92.8393493,27.0372779 93.0114586,28.0720009 93.0114586,29.244687 L93.0114586,29.244687 Z M89.5692738,29.3136686 C89.5692738,30.6932993 89.293899,31.8314946 88.7431494,32.659273 C88.1923999,33.4870514 87.2974318,33.9009407 86.0926671,33.9009407 C85.5419175,33.9009407 85.0255898,33.7974684 84.543684,33.6250145 C84.0617781,33.4525607 83.6831377,33.2801068 83.3733411,33.0731622 L83.3733411,24.795378 C83.6831377,24.7263965 84.0273562,24.6574149 84.3715747,24.6229242 C84.6813713,24.5884334 85.0255898,24.5884334 85.3353865,24.5884334 C86.8155259,24.5884334 87.8826032,25.0023226 88.5710402,25.830101 C89.2250553,26.6578795 89.5692738,27.8305656 89.5692738,29.3136686 Z M101.479233,36.7636744 C100.481,36.7291836 99.6548753,36.6257113 99.0008602,36.4187667 C98.346845,36.2118221 97.8305173,35.9358959 97.451877,35.5564975 C97.0732367,35.1770991 96.7978619,34.6942283 96.6257526,34.142376 C96.4536434,33.5905237 96.3847997,32.9351992 96.3847997,32.210893 L96.3847997,15.5518523 L99.723719,15 L99.723719,31.5900592 C99.723719,32.0039484 99.7581408,32.3488561 99.8269845,32.6247823 C99.8958282,32.9007084 99.9990938,33.1421438 100.171203,33.3145976 C100.343312,33.5215422 100.549843,33.6595053 100.85964,33.7629776 C101.135015,33.8664499 101.513655,33.9354314 101.961139,34.004413 L101.479233,36.7636744 Z M109.465102,21.6222274 C110.566601,21.6222274 111.495991,21.7601905 112.253272,22.0361166 C113.010552,22.3120427 113.595724,22.6914412 114.07763,23.2088027 C114.525114,23.6916734 114.83491,24.3125073 115.041441,25.0368134 C115.247972,25.7611195 115.316816,26.5199164 115.316816,27.3821856 L115.316816,36.1428406 C114.800488,36.2463129 114.008786,36.3842759 112.97613,36.5567298 C111.943475,36.7291836 110.773132,36.7981651 109.465102,36.7981651 C108.604556,36.7981651 107.812853,36.7291836 107.089994,36.5567298 C106.367136,36.3842759 105.747542,36.1083498 105.265637,35.7634421 C104.749309,35.3840437 104.370668,34.9011729 104.060872,34.3148299 C103.785497,33.7284868 103.64781,33.0041807 103.64781,32.1419115 C103.64781,31.3141331 103.819919,30.6243177 104.129716,30.0379747 C104.439512,29.4516316 104.886996,29.0032517 105.437746,28.6238532 C105.988495,28.2789455 106.64251,28.0030194 107.365369,27.8650563 C108.088228,27.6926025 108.845509,27.6236209 109.637211,27.6236209 C110.015852,27.6236209 110.394492,27.6581117 110.807554,27.6926025 C111.220616,27.7270933 111.633678,27.8305656 112.115584,27.9340379 L112.115584,27.3821856 C112.115584,27.0027871 112.081162,26.6233887 111.977897,26.278481 C111.874631,25.9335733 111.736944,25.6231564 111.495991,25.3472303 C111.255038,25.0713041 110.945241,24.8643595 110.601023,24.7263965 C110.222383,24.5884334 109.740477,24.5194519 109.189727,24.5194519 C108.432447,24.5194519 107.709588,24.5884334 107.055573,24.6919057 C106.401558,24.795378 105.88523,24.9333411 105.472168,25.0713041 L105.059105,22.3465335 C105.472168,22.2085704 106.091761,22.0361166 106.917885,21.8981535 C107.675166,21.6912089 108.535712,21.6222274 109.465102,21.6222274 Z M109.740477,34.1078853 C110.773132,34.1078853 111.564835,34.0389037 112.081162,33.9354314 L112.081162,30.2449193 C111.909053,30.1759378 111.633678,30.141447 111.28946,30.0724655 C110.945241,30.0034839 110.566601,30.0034839 110.119117,30.0034839 C109.740477,30.0034839 109.361836,30.0379747 108.983196,30.0724655 C108.604556,30.141447 108.260337,30.2449193 107.950541,30.3828824 C107.640744,30.5208454 107.399791,30.72779 107.227682,31.0037162 C107.055573,31.2796423 106.952307,31.62455 106.952307,32.0039484 C106.952307,32.7972361 107.19326,33.3490884 107.709588,33.6595053 C108.225915,33.9699222 108.914352,34.1078853 109.740477,34.1078853 Z M119.240907,18.1731506 L122.579826,17.6212983 L122.579826,22.0016258 L127.708681,22.0016258 L127.708681,24.795378 L122.614248,24.795378 L122.614248,30.6932993 C122.614248,31.8659854 122.786357,32.6937638 123.164998,33.1766345 C123.543638,33.6595053 124.163231,33.9354314 125.058199,33.9354314 C125.677792,33.9354314 126.19412,33.8664499 126.676026,33.7284868 C127.157932,33.5905237 127.50215,33.4870514 127.777525,33.3835791 L128.328275,36.0393682 C127.949634,36.2118221 127.433307,36.3842759 126.813713,36.5567298 C126.19412,36.7291836 125.43684,36.8326559 124.610715,36.8326559 C123.57806,36.8326559 122.717514,36.6946928 122.029077,36.4187667 C121.34064,36.1428406 120.78989,35.7289513 120.376828,35.2115898 C119.963766,34.6942283 119.688391,34.0389037 119.516282,33.3145976 C119.344172,32.5558007 119.275329,31.7280223 119.275329,30.7622808 L119.275329,18.1731506 L119.240907,18.1731506 Z M135.763394,21.6222274 C136.864893,21.6222274 137.794283,21.7601905 138.551564,22.0361166 C139.308844,22.3120427 139.894016,22.6914412 140.375922,23.2088027 C140.823406,23.6916734 141.133202,24.3125073 141.339733,25.0368134 C141.546264,25.7611195 141.615108,26.5199164 141.615108,27.3821856 L141.615108,36.1428406 C141.09878,36.2463129 140.307078,36.3842759 139.274422,36.5567298 C138.241767,36.7291836 137.071424,36.7981651 135.763394,36.7981651 C134.902848,36.7981651 134.111145,36.7291836 133.388286,36.5567298 C132.665428,36.3842759 132.045834,36.1083498 131.563928,35.7634421 C131.047601,35.3840437 130.66896,34.9011729 130.359164,34.3148299 C130.083789,33.7284868 129.946102,33.0041807 129.946102,32.1419115 C129.946102,31.3141331 130.118211,30.6243177 130.428007,30.0379747 C130.737804,29.4516316 131.185288,29.0032517 131.736038,28.6238532 C132.286787,28.2789455 132.940802,28.0030194 133.663661,27.8650563 C134.38652,27.6926025 135.143801,27.6236209 135.935503,27.6236209 C136.314144,27.6236209 136.692784,27.6581117 137.105846,27.6926025 C137.518908,27.7270933 137.93197,27.8305656 138.413876,27.9340379 L138.413876,27.3821856 C138.413876,27.0027871 138.379454,26.6233887 138.276189,26.278481 C138.172923,25.9335733 138.035236,25.6231564 137.794283,25.3472303 C137.55333,25.0713041 137.243533,24.8643595 136.864893,24.7263965 C136.486253,24.5884334 136.004347,24.5194519 135.453597,24.5194519 C134.696317,24.5194519 133.973458,24.5884334 133.319443,24.6919057 C132.665428,24.795378 132.1491,24.9333411 131.736038,25.0713041 L131.322976,22.3465335 C131.736038,22.2085704 132.355631,22.0361166 133.181755,21.8981535 C133.973458,21.6912089 134.868426,21.6222274 135.763394,21.6222274 Z M136.038769,34.1078853 C137.071424,34.1078853 137.863127,34.0389037 138.379454,33.9354314 L138.379454,30.2449193 C138.207345,30.1759378 137.93197,30.141447 137.587752,30.0724655 C137.243533,30.0034839 136.864893,30.0034839 136.417409,30.0034839 C136.038769,30.0034839 135.660128,30.0379747 135.31591,30.0724655 C134.93727,30.141447 134.593051,30.2449193 134.283254,30.3828824 C133.973458,30.5208454 133.732505,30.72779 133.560396,31.0037162 C133.388286,31.2796423 133.285021,31.62455 133.285021,32.0039484 C133.285021,32.7972361 133.525974,33.3490884 134.042302,33.6595053 C134.524207,33.9699222 135.212644,34.1078853 136.038769,34.1078853 Z M145.711308,22.4500058 C146.365323,22.277552 147.191448,22.1050981 148.224103,21.9326443 C149.256758,21.7601905 150.392679,21.6912089 151.666288,21.6912089 C152.836631,21.6912089 153.834864,21.8636628 154.626567,22.1740797 C155.418269,22.4844966 156.037862,22.9328766 156.519768,23.5192196 C157.001674,24.1055627 157.311471,24.795378 157.518002,25.6231564 C157.724533,26.4509349 157.793377,27.3476948 157.793377,28.3134363 L157.793377,36.4532575 L154.454457,36.4532575 L154.454457,28.8652886 C154.454457,28.1064917 154.420036,27.4166763 154.31677,26.8993148 C154.213505,26.3474625 154.041395,25.8990826 153.834864,25.5541749 C153.628333,25.2092672 153.284115,24.9678318 152.905474,24.795378 C152.492412,24.6229242 152.010506,24.5539426 151.459757,24.5539426 C151.046695,24.5539426 150.59921,24.5884334 150.117305,24.6229242 C149.669821,24.6919057 149.325602,24.7263965 149.084649,24.7608872 L149.084649,36.4532575 L145.74573,36.4532575 L145.74573,22.4500058 L145.711308,22.4500058 Z M173.730692,36.0393682 C173.076677,36.2118221 172.250553,36.3842759 171.217898,36.5567298 C170.185242,36.7291836 169.049321,36.8326559 167.810135,36.8326559 C166.639792,36.8326559 165.67598,36.6602021 164.884277,36.3497852 C164.092575,36.0393682 163.472982,35.5564975 162.991076,34.9701545 C162.50917,34.3838114 162.199373,33.6595053 161.992842,32.8662176 C161.786311,32.0384392 161.683046,31.1416792 161.683046,30.1759378 L161.683046,22.0016258 L165.021965,22.0016258 L165.021965,29.5895947 C165.021965,31.1416792 165.262918,32.2453838 165.710402,32.9007084 C166.157886,33.556033 166.949588,33.9009407 168.085509,33.9009407 C168.498572,33.9009407 168.911634,33.8664499 169.359118,33.8319591 C169.806602,33.7974684 170.15082,33.7629776 170.357351,33.6939961 L170.357351,21.9671351 L173.696271,21.9671351 L173.696271,36.0393682 L173.730692,36.0393682 Z M181.613296,34.0733945 C182.508264,34.0733945 183.127857,33.9699222 183.540919,33.7629776 C183.953981,33.556033 184.160512,33.1766345 184.160512,32.659273 C184.160512,32.1764023 183.953981,31.7970038 183.506497,31.4520962 C183.059013,31.1071885 182.370576,30.7967716 181.372343,30.4173731 C180.752749,30.2104285 180.202,29.9689931 179.685672,29.7275578 C179.169344,29.4861224 178.756282,29.1757055 178.377642,28.8652886 C177.999002,28.5548717 177.723627,28.1409825 177.517096,27.6581117 C177.310565,27.175241 177.207299,26.6233887 177.207299,25.9335733 C177.207299,24.5884334 177.689205,23.5537104 178.687439,22.7949135 C179.65125,22.0361166 180.993702,21.6567182 182.680373,21.6567182 C183.540919,21.6567182 184.332622,21.7256997 185.124324,21.8981535 C185.881605,22.0706074 186.466776,22.2085704 186.879838,22.3465335 L186.260245,25.0713041 C185.881605,24.8988503 185.434121,24.7608872 184.848949,24.6229242 C184.263778,24.4849611 183.609763,24.4159796 182.852482,24.4159796 C182.164045,24.4159796 181.613296,24.5194519 181.200233,24.7608872 C180.787171,25.0023226 180.58064,25.3472303 180.58064,25.830101 C180.58064,26.0715364 180.615062,26.278481 180.718328,26.4509349 C180.787171,26.6233887 180.959281,26.7958425 181.13139,26.9682964 C181.337921,27.1407502 181.613296,27.2787133 181.923092,27.4511671 C182.267311,27.6236209 182.645951,27.761584 183.127857,27.9340379 C183.919559,28.2444548 184.607996,28.5203809 185.158746,28.796307 C185.709496,29.0722332 186.15698,29.4171409 186.53562,29.7620485 C186.879838,30.1069562 187.155213,30.5208454 187.327322,31.0037162 C187.499432,31.4520962 187.568275,32.0039484 187.568275,32.659273 C187.568275,34.0389037 187.051948,35.1081175 186.019292,35.7979329 C184.986637,36.522239 183.540919,36.8671467 181.647717,36.8671467 C180.374109,36.8671467 179.341454,36.7636744 178.584173,36.5567298 C177.826892,36.3497852 177.276143,36.1773313 176.966346,36.0393682 L177.551518,33.2456161 C178.033423,33.4525607 178.653017,33.6595053 179.341454,33.8319591 C179.926625,33.9699222 180.718328,34.0733945 181.613296,34.0733945 Z" id="platanus" fill="#343434"></path>
            </g>
        </g>
    </g>
</svg>
