<?xml version="1.0" encoding="UTF-8"?>
<svg width="40px" height="43px" viewBox="0 0 40 43" version="1.1" xmlns="http://www.w3.org/2000/svg" xmlns:xlink="http://www.w3.org/1999/xlink">
    <!-- Generator: Sketch 48.2 (47327) - http://www.bohemiancoding.com/sketch -->
    <title>By-Platanus</title>
    <desc>Created with Sketch.</desc>
    <defs></defs>
    <g id="GhPrStats" stroke="none" stroke-width="1" fill="none" fill-rule="evenodd" transform="translate(-698.000000, -1335.000000)">
        <g id="By-Platanus" transform="translate(690.000000, 1332.000000)">
            <g transform="translate(6.000000, 0.000000)">
                <g id="Group" transform="translate(2.000000, 3.000000)" fill-rule="nonzero">
                    <path d="M31.8545455,0.218181818 C31.9854545,0.305454545 32.0727273,0.392727273 32.16,0.48 C36.2181818,6.24 39.6218182,12.6981818 39.6218182,21.2509091 C39.6218182,29.8472727 36.0872727,36.3054545 32.16,41.7163636 C32.0290909,41.8472727 31.9854545,41.9781818 31.8109091,42.1090909 C31.6363636,42.24 31.2872727,42.1963636 31.2872727,42.1963636 L27.4909091,42.1963636 C27.4909091,42.1963636 27.36,42.1963636 27.3163636,42.1527273 C27.2727273,42.0654545 27.3163636,42.0218182 27.36,41.9781818 C28.8872727,38.9236364 30.4145455,35.8254545 31.5490909,32.3345455 C32.64,29.0181818 33.7309091,25.3963636 33.8181818,21.1636364 C33.9490909,16.5381818 33.2945455,13.7454545 32.3781818,10.7781818 C30.9818182,6.32727273 29.0181818,2.79272727 27.4909091,0.48 C27.36,0.305454545 27.36,0.261818182 27.4036364,0.174545455 C27.4909091,0.0872727273 27.5781818,0.0872727273 27.5781818,0.0872727273 L31.3309091,0.0872727273 C31.3745455,0.130909091 31.7236364,0.130909091 31.8545455,0.218181818 Z" id="Shape" fill="#FCEA10"></path>
                    <path d="M28.8436364,7.98545455 C28.5818182,7.33090909 25.7018182,0.916363636 25.6145455,0.741818182 C25.5709091,0.654545455 25.5272727,0.698181818 25.4836364,0.698181818 C25.44,0.741818182 25.3963636,0.785454545 25.44,0.96 C25.7018182,3.31636364 25.7890909,6.76363636 25.0472727,10.6909091 C24.5672727,13.2654545 23.9563636,15.6218182 21.9927273,19.1127273 C20.2472727,22.2545455 17.9781818,24.5672727 15.84,26.6618182 C13.6145455,28.8436364 11.2145455,30.5890909 8.85818182,32.2909091 C8.77090909,32.2909091 8.72727273,32.3345455 8.72727273,32.3781818 C8.72727273,32.4218182 8.85818182,32.5090909 8.85818182,32.5090909 L11.7381818,34.0363636 C11.7381818,34.0363636 12,34.1672727 12.1745455,34.1672727 C12.3490909,34.1236364 12.4363636,34.08 12.5672727,34.0363636 C17.7163636,31.4618182 22.9090909,28.0145455 26.3563636,21.5127273 C28.3636364,17.7163636 29.4545455,13.9636364 29.3672727,10.3418182 C29.3236364,9.33818182 29.0181818,8.55272727 28.8436364,7.98545455 Z" id="Shape" fill="#F9BC12"></path>
                    <path d="M23.4763636,7.50545455 C23.52,6.93818182 23.6509091,1.26545455 23.6509091,1.13454545 C23.6509091,1.04727273 23.6072727,1.04727273 23.5636364,1.04727273 C23.52,1.04727273 23.4763636,1.09090909 23.4327273,1.22181818 C22.8218182,3.01090909 21.6436364,5.54181818 19.7672727,8.16 C18.5018182,9.86181818 17.2363636,11.3890909 14.6181818,13.2218182 C12.2181818,14.8363636 9.73090909,15.7090909 7.46181818,16.4945455 C5.06181818,17.28 2.74909091,17.76 0.392727273,18.1527273 C0.349090909,18.1527273 0.305454545,18.1527273 0.261818182,18.1963636 C0.261818182,18.24 0.305454545,18.3272727 0.305454545,18.3272727 L1.87636364,20.4218182 C1.87636364,20.4218182 2.00727273,20.64 2.13818182,20.6836364 C2.26909091,20.7272727 2.35636364,20.7272727 2.48727273,20.7272727 C7.11272727,20.6836364 12.1309091,19.9854545 16.8872727,16.4509091 C19.68,14.4 21.7745455,12.0436364 22.9527273,9.38181818 C23.3454545,8.64 23.4327273,7.98545455 23.4763636,7.50545455 Z" id="Shape" fill="#F9BC12"></path>
                </g>
                <rect id="_x3C_Slice_x3E__1_" x="0" y="0" width="48" height="48"></rect>
            </g>
        </g>
    </g>
</svg>