<svg width="18" height="22" viewBox="0 0 18 22" fill="none" xmlns="http://www.w3.org/2000/svg">
<path d="M15.8602 16.1992C15.8602 16.1992 15.8602 9.625 15.8602 7.5625C15.8602 5.5 13.7998 3.4375 11.7393 3.4375C10.3656 3.4375 10.3656 3.4375 10.3656 3.4375V0.6875L6.24463 4.8125L10.3656 8.9375V6.1875C10.3656 6.1875 11.0524 6.1875 11.7393 6.1875C12.4261 6.1875 13.1129 6.875 13.1129 7.5625C13.1129 8.25 13.1129 16.1992 13.1129 16.1992C12.2973 16.6719 11.7393 17.5527 11.7393 18.5625C11.7393 20.0879 12.9627 21.3125 14.4866 21.3125C16.0105 21.3125 17.2339 20.0879 17.2339 18.5625C17.2339 17.5527 16.6759 16.6719 15.8602 16.1992ZM14.4866 19.9375C13.7354 19.9375 13.1129 19.3145 13.1129 18.5625C13.1129 17.8105 13.7354 17.1875 14.4866 17.1875C15.2378 17.1875 15.8602 17.8105 15.8602 18.5625C15.8602 19.3145 15.2378 19.9375 14.4866 19.9375ZM3.49732 2.0625C1.97341 2.0625 0.75 3.28711 0.75 4.8125C0.75 5.82227 1.30805 6.70312 2.12366 7.17578V16.1777C1.30805 16.6504 0.75 17.5312 0.75 18.541C0.75 20.0664 1.97341 21.291 3.49732 21.291C5.02122 21.291 6.24463 20.0664 6.24463 18.541C6.24463 17.5312 5.68659 16.6504 4.87098 16.1777V7.17578C5.68659 6.70312 6.24463 5.82227 6.24463 4.8125C6.24463 3.28711 5.02122 2.0625 3.49732 2.0625ZM3.49732 19.9375C2.7461 19.9375 2.12366 19.3145 2.12366 18.5625C2.12366 17.8105 2.7461 17.1875 3.49732 17.1875C4.24854 17.1875 4.87098 17.8105 4.87098 18.5625C4.87098 19.3145 4.24854 19.9375 3.49732 19.9375ZM3.49732 6.1875C2.7461 6.1875 2.12366 5.56445 2.12366 4.8125C2.12366 4.06055 2.7461 3.4375 3.49732 3.4375C4.24854 3.4375 4.87098 4.06055 4.87098 4.8125C4.87098 5.56445 4.24854 6.1875 3.49732 6.1875Z"/>
</svg>
